<?xml version="1.0" encoding="UTF-8" standalone="no"?>
<!DOCTYPE svg PUBLIC "-//W3C//DTD SVG 1.1//EN"
 "http://www.w3.org/Graphics/SVG/1.1/DTD/svg11.dtd">
<!-- Generated by graphviz version 2.40.1 (20161225.0304)
 -->
<!-- Title: %3 Pages: 1 -->
<svg width="515pt" height="244pt"
 viewBox="0.00 0.00 515.00 244.00" xmlns="http://www.w3.org/2000/svg" xmlns:xlink="http://www.w3.org/1999/xlink">
<g id="graph0" class="graph" transform="scale(1 1) rotate(0) translate(4 240)">
<title>%3</title>
<polygon fill="#333333" stroke="transparent" points="-4,4 -4,-240 511,-240 511,4 -4,4"/>
<text text-anchor="middle" x="253.5" y="-9.2" font-family="Times,serif" font-size="16.00" fill="#ffffff">Network Map</text>
<!-- R2 -->
<g id="node1" class="node">
<title>R2</title>
<polygon fill="#006699" stroke="#006699" points="85,-149 31,-149 31,-113 85,-113 85,-149"/>
<text text-anchor="middle" x="58" y="-127.3" font-family="Helvetica,sans-Serif" font-size="14.00" fill="#ffffff">R2</text>
</g>
<!-- SW2 -->
<g id="node4" class="node">
<title>SW2</title>
<polygon fill="#006699" stroke="#006699" points="85,-236 31,-236 31,-200 85,-200 85,-236"/>
<text text-anchor="middle" x="58" y="-214.3" font-family="Helvetica,sans-Serif" font-size="14.00" fill="#ffffff">SW2</text>
</g>
<!-- R2&#45;&#45;SW2 -->
<g id="edge5" class="edge">
<title>R2&#45;&#45;SW2</title>
<path fill="none" stroke="#00ff00" stroke-dasharray="5,2" d="M58,-149.0265C58,-163.9578 58,-185.0717 58,-199.9966"/>
<text text-anchor="middle" x="108" y="-170.8" font-family="Courier,monospace" font-size="14.00" fill="#ffffff"> &#160;&#160;&#160;&#160;&#160;&#160;&#160;&#160;&#160;&#160;&#160;</text>
<text text-anchor="middle" x="29" y="-188.7966" font-family="Courier,monospace" font-size="14.00" fill="#ffffff">Eth0/11</text>
<text text-anchor="middle" x="33" y="-152.8265" font-family="Courier,monospace" font-size="14.00" fill="#ffffff">Eth0/1</text>
</g>
<!-- R5 -->
<g id="node2" class="node">
<title>R5</title>
<polygon fill="#006699" stroke="#006699" points="208,-236 154,-236 154,-200 208,-200 208,-236"/>
<text text-anchor="middle" x="181" y="-214.3" font-family="Helvetica,sans-Serif" font-size="14.00" fill="#ffffff">R5</text>
</g>
<!-- R3 -->
<g id="node3" class="node">
<title>R3</title>
<polygon fill="#006699" stroke="#006699" points="208,-149 154,-149 154,-113 208,-113 208,-149"/>
<text text-anchor="middle" x="181" y="-127.3" font-family="Helvetica,sans-Serif" font-size="14.00" fill="#ffffff">R3</text>
</g>
<!-- R3&#45;&#45;R5 -->
<g id="edge7" class="edge">
<title>R3&#45;&#45;R5</title>
<path fill="none" stroke="#00ff00" stroke-dasharray="5,2" d="M181,-149.0265C181,-163.9578 181,-185.0717 181,-199.9966"/>
<text text-anchor="middle" x="231" y="-170.8" font-family="Courier,monospace" font-size="14.00" fill="#ffffff"> &#160;&#160;&#160;&#160;&#160;&#160;&#160;&#160;&#160;&#160;&#160;</text>
<text text-anchor="middle" x="156" y="-188.7966" font-family="Courier,monospace" font-size="14.00" fill="#ffffff">Eth0/0</text>
<text text-anchor="middle" x="156" y="-152.8265" font-family="Courier,monospace" font-size="14.00" fill="#ffffff">Eth0/2</text>
</g>
<!-- R4 -->
<g id="node8" class="node">
<title>R4</title>
<polygon fill="#006699" stroke="#006699" points="331,-236 277,-236 277,-200 331,-200 331,-236"/>
<text text-anchor="middle" x="304" y="-214.3" font-family="Helvetica,sans-Serif" font-size="14.00" fill="#ffffff">R4</text>
</g>
<!-- R3&#45;&#45;R4 -->
<g id="edge6" class="edge">
<title>R3&#45;&#45;R4</title>
<path fill="none" stroke="#00ff00" stroke-dasharray="5,2" d="M208.1293,-134.5842C230.4519,-138.8282 261.6257,-147.9061 282,-167 291.2875,-175.7039 296.8464,-188.9912 300.0526,-199.8212"/>
<text text-anchor="middle" x="342" y="-170.8" font-family="Courier,monospace" font-size="14.00" fill="#ffffff"> &#160;&#160;&#160;&#160;&#160;&#160;&#160;&#160;&#160;&#160;&#160;</text>
<text text-anchor="middle" x="275.0526" y="-188.6212" font-family="Courier,monospace" font-size="14.00" fill="#ffffff">Eth0/0</text>
<text text-anchor="middle" x="233.1293" y="-123.3842" font-family="Courier,monospace" font-size="14.00" fill="#ffffff">Eth0/1</text>
</g>
<!-- R1 -->
<g id="node5" class="node">
<title>R1</title>
<polygon fill="#006699" stroke="#006699" points="331,-149 277,-149 277,-113 331,-113 331,-149"/>
<text text-anchor="middle" x="304" y="-127.3" font-family="Helvetica,sans-Serif" font-size="14.00" fill="#ffffff">R1</text>
</g>
<!-- SW1 -->
<g id="node6" class="node">
<title>SW1</title>
<polygon fill="#006699" stroke="#006699" points="269,-62 215,-62 215,-26 269,-26 269,-62"/>
<text text-anchor="middle" x="242" y="-40.3" font-family="Helvetica,sans-Serif" font-size="14.00" fill="#ffffff">SW1</text>
</g>
<!-- SW1&#45;&#45;R2 -->
<g id="edge2" class="edge">
<title>SW1&#45;&#45;R2</title>
<path fill="none" stroke="#00ff00" stroke-dasharray="5,2" d="M214.765,-46.519C172.6232,-50.9487 94.3401,-61.467 74,-80 64.8085,-88.3749 60.8555,-101.9557 59.1754,-112.9978"/>
<text text-anchor="middle" x="124" y="-83.8" font-family="Courier,monospace" font-size="14.00" fill="#ffffff"> &#160;&#160;&#160;&#160;&#160;&#160;&#160;&#160;&#160;&#160;&#160;</text>
<text text-anchor="middle" x="34.1754" y="-101.7978" font-family="Courier,monospace" font-size="14.00" fill="#ffffff">Eth0/0</text>
<text text-anchor="middle" x="189.765" y="-35.319" font-family="Courier,monospace" font-size="14.00" fill="#ffffff">Eth0/2</text>
</g>
<!-- SW1&#45;&#45;R3 -->
<g id="edge3" class="edge">
<title>SW1&#45;&#45;R3</title>
<path fill="none" stroke="#00ff00" stroke-dasharray="5,2" d="M214.7547,-53.2917C202.4936,-58.9783 189.1845,-67.596 182,-80 176.3186,-89.8089 176.0686,-102.5589 177.2389,-112.8567"/>
<text text-anchor="middle" x="232" y="-83.8" font-family="Courier,monospace" font-size="14.00" fill="#ffffff"> &#160;&#160;&#160;&#160;&#160;&#160;&#160;&#160;&#160;&#160;&#160;</text>
<text text-anchor="middle" x="152.2389" y="-101.6567" font-family="Courier,monospace" font-size="14.00" fill="#ffffff">Eth0/0</text>
<text text-anchor="middle" x="189.7547" y="-57.0917" font-family="Courier,monospace" font-size="14.00" fill="#ffffff">Eth0/3</text>
</g>
<!-- SW1&#45;&#45;R1 -->
<g id="edge1" class="edge">
<title>SW1&#45;&#45;R1</title>
<path fill="none" stroke="#00ff00" stroke-dasharray="5,2" d="M265.7084,-62.2819C271.5435,-67.5572 277.4234,-73.6247 282,-80 289.0854,-89.8701 294.5256,-102.379 298.2236,-112.5381"/>
<text text-anchor="middle" x="340" y="-83.8" font-family="Courier,monospace" font-size="14.00" fill="#ffffff"> &#160;&#160;&#160;&#160;&#160;&#160;&#160;&#160;&#160;&#160;&#160;</text>
<text text-anchor="middle" x="273.2236" y="-101.3381" font-family="Courier,monospace" font-size="14.00" fill="#ffffff">Eth0/0</text>
<text text-anchor="middle" x="240.7084" y="-66.0819" font-family="Courier,monospace" font-size="14.00" fill="#ffffff">Eth0/1</text>
</g>
<!-- R6 -->
<g id="node7" class="node">
<title>R6</title>
<polygon fill="#006699" stroke="#006699" points="454,-149 400,-149 400,-113 454,-113 454,-149"/>
<text text-anchor="middle" x="427" y="-127.3" font-family="Helvetica,sans-Serif" font-size="14.00" fill="#ffffff">R6</text>
</g>
<!-- SW1&#45;&#45;R6 -->
<g id="edge4" class="edge">
<title>SW1&#45;&#45;R6</title>
<path fill="none" stroke="#00ff00" stroke-dasharray="5,2" d="M269.2804,-47.9635C307.3852,-53.9138 374.1137,-65.9667 394,-80 405.5463,-88.1479 414.0466,-101.7393 419.5262,-112.8431"/>
<text text-anchor="middle" x="457" y="-83.8" font-family="Courier,monospace" font-size="14.00" fill="#ffffff"> &#160;&#160;&#160;&#160;&#160;&#160;&#160;&#160;&#160;&#160;&#160;</text>
<text text-anchor="middle" x="394.5262" y="-101.6431" font-family="Courier,monospace" font-size="14.00" fill="#ffffff">Eth0/1</text>
<text text-anchor="middle" x="294.2804" y="-36.7635" font-family="Courier,monospace" font-size="14.00" fill="#ffffff">Eth0/5</text>
</g>
</g>
</svg>
