<?xml version="1.0" encoding="UTF-8" standalone="no"?>
<!DOCTYPE svg PUBLIC "-//W3C//DTD SVG 1.1//EN"
 "http://www.w3.org/Graphics/SVG/1.1/DTD/svg11.dtd">
<!-- Generated by graphviz version 2.40.1 (20161225.0304)
 -->
<!-- Title: %3 Pages: 1 -->
<svg width="581pt" height="313pt"
 viewBox="0.00 0.00 581.00 313.00" xmlns="http://www.w3.org/2000/svg" xmlns:xlink="http://www.w3.org/1999/xlink">
<g id="graph0" class="graph" transform="scale(1 1) rotate(0) translate(4 309)">
<title>%3</title>
<polygon fill="#333333" stroke="transparent" points="-4,4 -4,-309 577,-309 577,4 -4,4"/>
<text text-anchor="middle" x="286.5" y="-9.2" font-family="Times,serif" font-size="16.00" fill="#ffffff">Network Map</text>
<!-- R2 -->
<g id="node1" class="node">
<title>R2</title>
<polygon fill="#006699" stroke="#006699" points="89.5,-195 26.5,-195 26.5,-136 89.5,-136 89.5,-195"/>
<text text-anchor="middle" x="58" y="-161.8" font-family="Helvetica,sans-Serif" font-size="14.00" fill="#ffffff">R2</text>
</g>
<!-- SW2 -->
<g id="node3" class="node">
<title>SW2</title>
<polygon fill="#006699" stroke="#006699" points="96.5,-305 19.5,-305 19.5,-246 96.5,-246 96.5,-305"/>
<text text-anchor="middle" x="58" y="-271.8" font-family="Helvetica,sans-Serif" font-size="14.00" fill="#ffffff">SW2</text>
</g>
<!-- R2&#45;&#45;SW2 -->
<g id="edge5" class="edge">
<title>R2&#45;&#45;SW2</title>
<path fill="none" stroke="#00ff00" stroke-dasharray="5,2" d="M58,-195.2676C58,-210.9198 58,-230.0529 58,-245.7086"/>
<text text-anchor="middle" x="108" y="-216.8" font-family="Courier,monospace" font-size="14.00" fill="#ffffff"> &#160;&#160;&#160;&#160;&#160;&#160;&#160;&#160;&#160;&#160;&#160;</text>
<text text-anchor="middle" x="29" y="-234.5086" font-family="Courier,monospace" font-size="14.00" fill="#ffffff">Eth0/11</text>
<text text-anchor="middle" x="33" y="-199.0676" font-family="Courier,monospace" font-size="14.00" fill="#ffffff">Eth0/1</text>
</g>
<!-- R5 -->
<g id="node2" class="node">
<title>R5</title>
<polygon fill="#006699" stroke="#006699" points="396.5,-305 333.5,-305 333.5,-246 396.5,-246 396.5,-305"/>
<text text-anchor="middle" x="365" y="-271.8" font-family="Helvetica,sans-Serif" font-size="14.00" fill="#ffffff">R5</text>
</g>
<!-- R1 -->
<g id="node4" class="node">
<title>R1</title>
<polygon fill="#006699" stroke="#006699" points="212.5,-195 149.5,-195 149.5,-136 212.5,-136 212.5,-195"/>
<text text-anchor="middle" x="181" y="-161.8" font-family="Helvetica,sans-Serif" font-size="14.00" fill="#ffffff">R1</text>
</g>
<!-- SW1 -->
<g id="node5" class="node">
<title>SW1</title>
<polygon fill="#006699" stroke="#006699" points="280.5,-85 203.5,-85 203.5,-26 280.5,-26 280.5,-85"/>
<text text-anchor="middle" x="242" y="-51.8" font-family="Helvetica,sans-Serif" font-size="14.00" fill="#ffffff">SW1</text>
</g>
<!-- SW1&#45;&#45;R2 -->
<g id="edge2" class="edge">
<title>SW1&#45;&#45;R2</title>
<path fill="none" stroke="#00ff00" stroke-dasharray="5,2" d="M203.1753,-61.8765C159.3705,-69.8373 91.8833,-84.6653 74,-103 65.4754,-111.7398 61.3094,-124.3677 59.3358,-135.9883"/>
<text text-anchor="middle" x="124" y="-106.8" font-family="Courier,monospace" font-size="14.00" fill="#ffffff"> &#160;&#160;&#160;&#160;&#160;&#160;&#160;&#160;&#160;&#160;&#160;</text>
<text text-anchor="middle" x="34.3358" y="-124.7883" font-family="Courier,monospace" font-size="14.00" fill="#ffffff">Eth0/0</text>
<text text-anchor="middle" x="178.1753" y="-50.6765" font-family="Courier,monospace" font-size="14.00" fill="#ffffff">Eth0/2</text>
</g>
<!-- SW1&#45;&#45;R1 -->
<g id="edge1" class="edge">
<title>SW1&#45;&#45;R1</title>
<path fill="none" stroke="#00ff00" stroke-dasharray="5,2" d="M203.2081,-77.9628C194.7118,-84.8471 186.8226,-93.2312 182,-103 177.052,-113.0228 175.9237,-125.0979 176.3424,-135.9514"/>
<text text-anchor="middle" x="232" y="-106.8" font-family="Courier,monospace" font-size="14.00" fill="#ffffff"> &#160;&#160;&#160;&#160;&#160;&#160;&#160;&#160;&#160;&#160;&#160;</text>
<text text-anchor="middle" x="151.3424" y="-124.7514" font-family="Courier,monospace" font-size="14.00" fill="#ffffff">Eth0/0</text>
<text text-anchor="middle" x="178.2081" y="-66.7628" font-family="Courier,monospace" font-size="14.00" fill="#ffffff">Eth0/1</text>
</g>
<!-- R6 -->
<g id="node7" class="node">
<title>R6</title>
<polygon fill="#006699" stroke="#006699" points="335.5,-195 272.5,-195 272.5,-136 335.5,-136 335.5,-195"/>
<text text-anchor="middle" x="304" y="-161.8" font-family="Helvetica,sans-Serif" font-size="14.00" fill="#ffffff">R6</text>
</g>
<!-- SW1&#45;&#45;R6 -->
<g id="edge4" class="edge">
<title>SW1&#45;&#45;R6</title>
<path fill="none" stroke="#00ff00" stroke-dasharray="5,2" d="M269.7669,-85.2078C274.233,-90.8589 278.5231,-96.9157 282,-103 287.8217,-113.1872 292.4967,-125.1786 296.0147,-135.9191"/>
<text text-anchor="middle" x="340" y="-106.8" font-family="Courier,monospace" font-size="14.00" fill="#ffffff"> &#160;&#160;&#160;&#160;&#160;&#160;&#160;&#160;&#160;&#160;&#160;</text>
<text text-anchor="middle" x="271.0147" y="-124.7191" font-family="Courier,monospace" font-size="14.00" fill="#ffffff">Eth0/1</text>
<text text-anchor="middle" x="244.7669" y="-89.0078" font-family="Courier,monospace" font-size="14.00" fill="#ffffff">Eth0/5</text>
</g>
<!-- R3 -->
<g id="node8" class="node">
<title>R3</title>
<polygon fill="#006699" stroke="#006699" points="458.5,-195 395.5,-195 395.5,-136 458.5,-136 458.5,-195"/>
<text text-anchor="middle" x="427" y="-161.8" font-family="Helvetica,sans-Serif" font-size="14.00" fill="#ffffff">R3</text>
</g>
<!-- SW1&#45;&#45;R3 -->
<g id="edge3" class="edge">
<title>SW1&#45;&#45;R3</title>
<path fill="none" stroke="#00ff00" stroke-dasharray="5,2" d="M280.5526,-59.2912C313.8533,-64.3396 361.5886,-76.0341 394,-103 404.2815,-111.5541 411.7902,-124.1544 417.0234,-135.8046"/>
<text text-anchor="middle" x="456" y="-106.8" font-family="Courier,monospace" font-size="14.00" fill="#ffffff"> &#160;&#160;&#160;&#160;&#160;&#160;&#160;&#160;&#160;&#160;&#160;</text>
<text text-anchor="middle" x="392.0234" y="-124.6046" font-family="Courier,monospace" font-size="14.00" fill="#ffffff">Eth0/0</text>
<text text-anchor="middle" x="305.5526" y="-48.0912" font-family="Courier,monospace" font-size="14.00" fill="#ffffff">Eth0/3</text>
</g>
<!-- R4 -->
<g id="node6" class="node">
<title>R4</title>
<polygon fill="#006699" stroke="#006699" points="519.5,-305 456.5,-305 456.5,-246 519.5,-246 519.5,-305"/>
<text text-anchor="middle" x="488" y="-271.8" font-family="Helvetica,sans-Serif" font-size="14.00" fill="#ffffff">R4</text>
</g>
<!-- R3&#45;&#45;R5 -->
<g id="edge7" class="edge">
<title>R3&#45;&#45;R5</title>
<path fill="none" stroke="#00ff00" stroke-dasharray="5,2" d="M395.1656,-180.4311C382.4148,-188.2059 369.0875,-199.0424 362,-213 356.934,-222.9765 356.4302,-235.0426 357.6375,-245.9018"/>
<text text-anchor="middle" x="412" y="-216.8" font-family="Courier,monospace" font-size="14.00" fill="#ffffff"> &#160;&#160;&#160;&#160;&#160;&#160;&#160;&#160;&#160;&#160;&#160;</text>
<text text-anchor="middle" x="332.6375" y="-234.7018" font-family="Courier,monospace" font-size="14.00" fill="#ffffff">Eth0/0</text>
<text text-anchor="middle" x="370.1656" y="-169.2311" font-family="Courier,monospace" font-size="14.00" fill="#ffffff">Eth0/2</text>
</g>
<!-- R3&#45;&#45;R4 -->
<g id="edge6" class="edge">
<title>R3&#45;&#45;R4</title>
<path fill="none" stroke="#00ff00" stroke-dasharray="5,2" d="M453.8489,-195.0166C458.2778,-200.7349 462.544,-206.8641 466,-213 471.7582,-223.2233 476.4203,-235.2219 479.9458,-245.9582"/>
<text text-anchor="middle" x="523" y="-216.8" font-family="Courier,monospace" font-size="14.00" fill="#ffffff"> &#160;&#160;&#160;&#160;&#160;&#160;&#160;&#160;&#160;&#160;&#160;</text>
<text text-anchor="middle" x="454.9458" y="-234.7582" font-family="Courier,monospace" font-size="14.00" fill="#ffffff">Eth0/0</text>
<text text-anchor="middle" x="428.8489" y="-198.8166" font-family="Courier,monospace" font-size="14.00" fill="#ffffff">Eth0/1</text>
</g>
</g>
</svg>
